<?xml version="1.0" encoding="UTF-8" standalone="no" ?>
<!DOCTYPE svg PUBLIC "-//W3C//DTD SVG 1.1//EN" "http://www.w3.org/Graphics/SVG/1.1/DTD/svg11.dtd">
<svg xmlns="http://www.w3.org/2000/svg" xmlns:xlink="http://www.w3.org/1999/xlink" version="1.1" width="698.6519535827636" height="190.80471999999997" xml:space="preserve">
<desc>Created with Fabric.js 1.6.0-rc.1</desc>
<defs></defs>
<g style="stroke: none; stroke-width: 1; stroke-dasharray: none; stroke-linecap: butt; stroke-linejoin: miter; stroke-miterlimit: 10; fill: none; fill-rule: nonzero; opacity: 1;" transform="translate(10 10) scale(0.31 0.31)" >
  <path d="M 451.765 399.059 c -4.631 -10.037 -12.777 -18.033 -22.912 -22.453 l -90.029 -30.253 h -97.882 h -97.882 l -90.037 30.253 c -10.12 4.42 -18.274 12.416 -22.904 22.453 L 0 481.882 h 240.941 h 240.941 L 451.765 399.059 z" style="stroke: none; stroke-width: 1; stroke-dasharray: none; stroke-linecap: butt; stroke-linejoin: miter; stroke-miterlimit: 10; fill: #26A69A; fill-rule: nonzero; opacity: 1;" transform=" matrix(1 0 0 1 0 0) " stroke-linecap="round" />
  <path d="M 240.941 421.918 c 29.041 0 97.882 -7.529 97.882 -52.706 c 0 -5.097 0 -13.47 0 -23.13 h -22.588 v 23.13 c 0 0 -15.059 30.118 -75.294 30.118 s -75.294 -30.118 -75.294 -30.118 v -23.13 h -22.588 c 0 9.66 0 18.04 0 23.13 C 143.059 414.389 211.9 421.918 240.941 421.918 z" style="stroke: none; stroke-width: 1; stroke-dasharray: none; stroke-linecap: butt; stroke-linejoin: miter; stroke-miterlimit: 10; fill: #B3E0DB; fill-rule: nonzero; opacity: 1;" transform=" matrix(1 0 0 1 0 0) " stroke-linecap="round" />
  <rect x="67.77" y="429.48" rx="0" ry="0" width="82.82" height="22.59" style="stroke: none; stroke-width: 1; stroke-dasharray: none; stroke-linecap: butt; stroke-linejoin: miter; stroke-miterlimit: 10; fill: #B3E0DB; fill-rule: nonzero; opacity: 1;" transform=" matrix(1 0 0 1 0 0) "/>
  <path d="M 260.924 338.824 h -19.983 h -19.991 c -6.445 0 -12.582 -2.748 -16.866 -7.567 l -38.438 -30.08 v 67.765 c 0 0 15.059 30.118 75.294 30.118 s 75.294 -30.118 75.294 -30.118 v -67.765 l -38.438 30.08 C 273.513 336.075 267.384 338.824 260.924 338.824 z" style="stroke: none; stroke-width: 1; stroke-dasharray: none; stroke-linecap: butt; stroke-linejoin: miter; stroke-miterlimit: 10; fill: #F4B1A9; fill-rule: nonzero; opacity: 1;" transform=" matrix(1 0 0 1 0 0) " stroke-linecap="round" />
  <path d="M 204.085 331.256 l -38.438 -30.08 v 68.036 c 0 0 15.059 30.118 75.294 30.118 v -60.506 h -19.991 C 214.505 338.824 208.369 336.075 204.085 331.256 z" style="stroke: none; stroke-width: 1; stroke-dasharray: none; stroke-linecap: butt; stroke-linejoin: miter; stroke-miterlimit: 10; fill: #FFCDD2; fill-rule: nonzero; opacity: 1;" transform=" matrix(1 0 0 1 0 0) " stroke-linecap="round" />
  <path d="M 353.882 165.918 c -7.529 0 -7.529 8.373 -7.529 8.373 v -8.644 c -0.045 -21.406 -0.836 -42.029 -4.977 -60.235 H 240.941 H 140.506 c -4.134 18.206 -4.932 38.829 -4.977 60.235 v 8.644 c 0 0 0 -8.373 -7.529 -8.373 c -7.529 0 -15.059 8.373 -15.059 16.73 c 0 24.538 7.236 56.99 28.664 58.428 l 24.041 60.1 l 38.438 30.08 c 4.284 4.819 10.421 7.567 16.866 7.567 h 19.991 h 19.983 c 6.453 0 12.589 -2.748 16.866 -7.567 l 38.445 -30.08 l 24.041 -60.1 c 21.429 -1.438 28.664 -33.89 28.664 -58.428 C 368.941 174.291 361.412 165.918 353.882 165.918 z" style="stroke: none; stroke-width: 1; stroke-dasharray: none; stroke-linecap: butt; stroke-linejoin: miter; stroke-miterlimit: 10; fill: #FFCDD2; fill-rule: nonzero; opacity: 1;" transform=" matrix(1 0 0 1 0 0) " stroke-linecap="round" />
  <path d="M 140.506 105.412 c -4.134 18.206 -4.932 38.829 -4.977 60.235 v 8.644 c 0 0 0 -8.373 -7.529 -8.373 c -7.529 0 -15.059 8.373 -15.059 16.73 c 0 24.538 7.236 56.99 28.664 58.428 l 24.041 60.1 l 38.438 30.08 c 4.284 4.819 10.421 7.567 16.866 7.567 h 19.991 V 105.412 H 140.506 z" style="stroke: none; stroke-width: 1; stroke-dasharray: none; stroke-linecap: butt; stroke-linejoin: miter; stroke-miterlimit: 10; fill: #FFEBEE; fill-rule: nonzero; opacity: 1;" transform=" matrix(1 0 0 1 0 0) " stroke-linecap="round" />
  <path d="M 218.353 180.977 c 0 -8.312 -6.746 -15.059 -15.059 -15.059 c -0.015 0 -0.03 0.008 -0.045 0.008 c 0.008 0.158 0.045 0.309 0.045 0.467 c 0 8.305 -6.716 15.029 -15.014 15.059 c 0.248 8.094 6.852 14.592 15.014 14.592 C 211.607 196.036 218.353 189.297 218.353 180.977 z" style="stroke: none; stroke-width: 1; stroke-dasharray: none; stroke-linecap: butt; stroke-linejoin: miter; stroke-miterlimit: 10; fill: #212121; fill-rule: nonzero; opacity: 1;" transform=" matrix(1 0 0 1 0 0) " stroke-linecap="round" />
  <path d="M 293.602 180.977 c 0 -8.312 -6.746 -15.059 -15.059 -15.059 c -0.015 0 -0.03 0.008 -0.045 0.008 c 0 0.158 0.045 0.309 0.045 0.467 c 0 8.305 -6.724 15.029 -15.014 15.059 c 0.248 8.094 6.852 14.592 15.014 14.592 C 286.856 196.036 293.602 189.297 293.602 180.977 z" style="stroke: none; stroke-width: 1; stroke-dasharray: none; stroke-linecap: butt; stroke-linejoin: miter; stroke-miterlimit: 10; fill: #212121; fill-rule: nonzero; opacity: 1;" transform=" matrix(1 0 0 1 0 0) " stroke-linecap="round" />
  <path d="M 240.941 211.095 c -52.706 0 -37.647 45.176 -97.882 45.176 c 0 37.647 52.706 90.353 97.882 90.353 s 97.882 -52.706 97.882 -90.353 C 278.588 256.271 293.647 211.095 240.941 211.095 z" style="stroke: none; stroke-width: 1; stroke-dasharray: none; stroke-linecap: butt; stroke-linejoin: miter; stroke-miterlimit: 10; fill: #26A69A; fill-rule: nonzero; opacity: 1;" transform=" matrix(1 0 0 1 0 0) " stroke-linecap="round" />
  <path d="M 331.294 203.294 h 15.059 v -8.824 c 0 -13.636 0 -21.022 15.059 -28.552 v -60.506 h -30.118 V 203.294 z" style="stroke: none; stroke-width: 1; stroke-dasharray: none; stroke-linecap: butt; stroke-linejoin: miter; stroke-miterlimit: 10; fill: #733825; fill-rule: nonzero; opacity: 1;" transform=" matrix(1 0 0 1 0 0) " stroke-linecap="round" />
  <path d="M 120.471 105.412 v 60.506 c 15.059 7.529 15.059 14.916 15.059 28.552 v 8.824 h 15.059 v -97.882 H 120.471 z" style="stroke: none; stroke-width: 1; stroke-dasharray: none; stroke-linecap: butt; stroke-linejoin: miter; stroke-miterlimit: 10; fill: #733825; fill-rule: nonzero; opacity: 1;" transform=" matrix(1 0 0 1 0 0) " stroke-linecap="round" />
  <path d="M 361.412 105.412 H 120.471 V 58.353 C 120.471 26.127 146.598 0 178.824 0 h 124.235 c 32.218 0 58.353 26.127 58.353 58.353 V 105.412 z" style="stroke: none; stroke-width: 1; stroke-dasharray: none; stroke-linecap: butt; stroke-linejoin: miter; stroke-miterlimit: 10; fill: #26A69A; fill-rule: nonzero; opacity: 1;" transform=" matrix(1 0 0 1 0 0) " stroke-linecap="round" />
  <path d="M 240.941 0 h -62.118 c -32.226 0 -58.353 26.127 -58.353 58.353 v 47.059 h 120.471 V 0 z" style="stroke: none; stroke-width: 1; stroke-dasharray: none; stroke-linecap: butt; stroke-linejoin: miter; stroke-miterlimit: 10; fill: #4CB6AC; fill-rule: nonzero; opacity: 1;" transform=" matrix(1 0 0 1 0 0) " stroke-linecap="round" />
  <path d="M 143.059 256.271 c 0 37.647 52.706 90.353 97.882 90.353 V 211.095 C 188.235 211.095 203.294 256.271 143.059 256.271 z" style="stroke: none; stroke-width: 1; stroke-dasharray: none; stroke-linecap: butt; stroke-linejoin: miter; stroke-miterlimit: 10; fill: #4CB6AC; fill-rule: nonzero; opacity: 1;" transform=" matrix(1 0 0 1 0 0) " stroke-linecap="round" />
  <rect x="120.47" y="105.41" rx="0" ry="0" width="240.94" height="15.06" style="stroke: none; stroke-width: 1; stroke-dasharray: none; stroke-linecap: butt; stroke-linejoin: miter; stroke-miterlimit: 10; fill: #B3E0DB; fill-rule: nonzero; opacity: 1;" transform=" matrix(1 0 0 1 0 0) "/>
</g>
  <g transform="translate(268.81 156.12) scale(0.96 0.96)">
   <text font-family="Lobster 13" font-size="40" font-weight="bold" style="stroke: none; stroke-width: 1; stroke-dasharray: none; stroke-linecap: butt; stroke-linejoin: miter; stroke-miterlimit: 10; fill: #000000; fill-rule: nonzero; opacity: 1;" ><tspan x="-94.21" y="8.98" style="stroke: none; stroke-width: 0; stroke-dasharray: none; stroke-linecap: butt; stroke-linejoin: miter; stroke-miterlimit: 4; fill: #000000; fill-rule: ; opacity: 1;">d</tspan><tspan x="-73.82" y="8.98" style="stroke: none; stroke-width: 0; stroke-dasharray: none; stroke-linecap: butt; stroke-linejoin: miter; stroke-miterlimit: 4; fill: #000000; fill-rule: ; opacity: 1;">e</tspan><tspan x="-59.62" y="8.98" style="stroke: none; stroke-width: 0; stroke-dasharray: none; stroke-linecap: butt; stroke-linejoin: miter; stroke-miterlimit: 4; fill: #000000; fill-rule: ; opacity: 1;">n</tspan><tspan x="-39.5" y="8.98" style="stroke: none; stroke-width: 0; stroke-dasharray: none; stroke-linecap: butt; stroke-linejoin: miter; stroke-miterlimit: 4; fill: #000000; fill-rule: ; opacity: 1;">t</tspan><tspan x="-27.82" y="8.98" style="stroke: none; stroke-width: 0; stroke-dasharray: none; stroke-linecap: butt; stroke-linejoin: miter; stroke-miterlimit: 4; fill: #000000; fill-rule: ; opacity: 1;">a</tspan><tspan x="-7.71" y="8.98" style="stroke: none; stroke-width: 0; stroke-dasharray: none; stroke-linecap: butt; stroke-linejoin: miter; stroke-miterlimit: 4; fill: #000000; fill-rule: ; opacity: 1;">l</tspan><tspan x="3.72" y="8.98" style="stroke: none; stroke-width: 0; stroke-dasharray: none; stroke-linecap: butt; stroke-linejoin: miter; stroke-miterlimit: 4; fill: #000000; fill-rule: ; opacity: 1;"> </tspan><tspan x="12.39" y="8.98" style="stroke: none; stroke-width: 0; stroke-dasharray: none; stroke-linecap: butt; stroke-linejoin: miter; stroke-miterlimit: 4; fill: #000000; fill-rule: ; opacity: 1;">c</tspan><tspan x="26.79" y="8.98" style="stroke: none; stroke-width: 0; stroke-dasharray: none; stroke-linecap: butt; stroke-linejoin: miter; stroke-miterlimit: 4; fill: #000000; fill-rule: ; opacity: 1;">l</tspan><tspan x="38.21" y="8.98" style="stroke: none; stroke-width: 0; stroke-dasharray: none; stroke-linecap: butt; stroke-linejoin: miter; stroke-miterlimit: 4; fill: #000000; fill-rule: ; opacity: 1;">i</tspan><tspan x="48.96" y="8.98" style="stroke: none; stroke-width: 0; stroke-dasharray: none; stroke-linecap: butt; stroke-linejoin: miter; stroke-miterlimit: 4; fill: #000000; fill-rule: ; opacity: 1;">n</tspan><tspan x="69.07" y="8.98" style="stroke: none; stroke-width: 0; stroke-dasharray: none; stroke-linecap: butt; stroke-linejoin: miter; stroke-miterlimit: 4; fill: #000000; fill-rule: ; opacity: 1;">i</tspan><tspan x="79.81" y="8.98" style="stroke: none; stroke-width: 0; stroke-dasharray: none; stroke-linecap: butt; stroke-linejoin: miter; stroke-miterlimit: 4; fill: #000000; fill-rule: ; opacity: 1;">c</tspan></text>
 </g>
  <g transform="translate(345.3 100.46) scale(1.97 1.97)">
   <text font-family="Gross" font-size="40" font-weight="normal" style="stroke: none; stroke-width: 1; stroke-dasharray: none; stroke-linecap: butt; stroke-linejoin: miter; stroke-miterlimit: 10; fill: #000000; fill-rule: nonzero; opacity: 1;" ><tspan x="-87.04" y="8.98" style="stroke: none; stroke-width: 0; stroke-dasharray: none; stroke-linecap: butt; stroke-linejoin: miter; stroke-miterlimit: 4; fill: #000000; fill-rule: ; opacity: 1;">D</tspan><tspan x="-60.04" y="8.98" style="stroke: none; stroke-width: 0; stroke-dasharray: none; stroke-linecap: butt; stroke-linejoin: miter; stroke-miterlimit: 4; fill: #000000; fill-rule: ; opacity: 1;">o</tspan><tspan x="-27" y="8.98" style="stroke: none; stroke-width: 0; stroke-dasharray: none; stroke-linecap: butt; stroke-linejoin: miter; stroke-miterlimit: 4; fill: #000000; fill-rule: ; opacity: 1;">c</tspan><tspan x="1.84" y="8.98" style="stroke: none; stroke-width: 0; stroke-dasharray: none; stroke-linecap: butt; stroke-linejoin: miter; stroke-miterlimit: 4; fill: #000000; fill-rule: ; opacity: 1;">t</tspan><tspan x="28" y="8.98" style="stroke: none; stroke-width: 0; stroke-dasharray: none; stroke-linecap: butt; stroke-linejoin: miter; stroke-miterlimit: 4; fill: #000000; fill-rule: ; opacity: 1;">o</tspan><tspan x="61.04" y="8.98" style="stroke: none; stroke-width: 0; stroke-dasharray: none; stroke-linecap: butt; stroke-linejoin: miter; stroke-miterlimit: 4; fill: #000000; fill-rule: ; opacity: 1;">r</tspan></text>
 </g>
  <g transform="translate(612.64 100.66) scale(1.95 1.95)">
   <text font-family="Gross" font-size="40" font-weight="normal" style="stroke: none; stroke-width: 1; stroke-dasharray: none; stroke-linecap: butt; stroke-linejoin: miter; stroke-miterlimit: 10; fill: #61ab8d; fill-rule: nonzero; opacity: 1;" ><tspan x="-39.48" y="8.98" style="stroke: none; stroke-width: 0; stroke-dasharray: none; stroke-linecap: butt; stroke-linejoin: miter; stroke-miterlimit: 4; fill: #61ab8d; fill-rule: ; opacity: 1;">A</tspan><tspan x="-8" y="8.98" style="stroke: none; stroke-width: 0; stroke-dasharray: none; stroke-linecap: butt; stroke-linejoin: miter; stroke-miterlimit: 4; fill: #61ab8d; fill-rule: ; opacity: 1;">L</tspan><tspan x="13.04" y="8.98" style="stroke: none; stroke-width: 0; stroke-dasharray: none; stroke-linecap: butt; stroke-linejoin: miter; stroke-miterlimit: 4; fill: #61ab8d; fill-rule: ; opacity: 1;">y</tspan></text>
 </g>
</svg>